solid OpenSCAD_Model
  facet normal -0.707107 -8.65956e-17 -0.707107
    outer loop
      vertex -16.1066 1 -1.22465e-16
      vertex -19.4853 3 3.37868
      vertex -16.1066 3 -3.67394e-16
    endloop
  endfacet
  facet normal -0.707107 -0 -0.707107
    outer loop
      vertex -19.4853 3 3.37868
      vertex -16.1066 1 -1.22465e-16
      vertex -19.4853 1 3.37868
    endloop
  endfacet
  facet normal 0.707107 0 -0.707107
    outer loop
      vertex -6.5 -3 3.63604
      vertex -10.136 -1 1.22465e-16
      vertex -6.5 -1 3.63604
    endloop
  endfacet
  facet normal 0.707107 -8.65956e-17 -0.707107
    outer loop
      vertex -10.136 -1 1.22465e-16
      vertex -6.5 -3 3.63604
      vertex -10.136 -3 3.67394e-16
    endloop
  endfacet
  facet normal 0.707107 0 -0.707107
    outer loop
      vertex -6.5 1 3.63604
      vertex -10.136 3 -3.67394e-16
      vertex -6.5 3 3.63604
    endloop
  endfacet
  facet normal 0.707107 -8.65956e-17 -0.707107
    outer loop
      vertex -10.136 3 -3.67394e-16
      vertex -6.5 1 3.63604
      vertex -10.136 1 -1.22465e-16
    endloop
  endfacet
  facet normal 0.707107 0 0.707107
    outer loop
      vertex -8.87868 3 13.9853
      vertex -8.86386 -3 13.9705
      vertex -8.86386 3 13.9705
    endloop
  endfacet
  facet normal 0.707107 -0 0.707107
    outer loop
      vertex -8.87868 -3 13.9853
      vertex -8.86386 -3 13.9705
      vertex -8.87868 3 13.9853
    endloop
  endfacet
  facet normal 0.707107 0 0.707107
    outer loop
      vertex -6.5 -3 11.6066
      vertex -8.86386 -3 13.9705
      vertex -8.87868 -3 13.9853
    endloop
  endfacet
  facet normal -0.707107 0 0.707107
    outer loop
      vertex -19.4853 -1 3.37868
      vertex -19.4853 -3 3.37868
      vertex -12.4142 -1 10.4497
    endloop
  endfacet
  facet normal -0.707107 0 0.707107
    outer loop
      vertex -12.4142 1 10.4497
      vertex -19.4853 3 3.37868
      vertex -19.4853 1 3.37868
    endloop
  endfacet
  facet normal -0.707107 -5.61958e-08 0.707107
    outer loop
      vertex -19.4853 3 3.37868
      vertex -12.4142 1 10.4497
      vertex -8.87868 3 13.9853
    endloop
  endfacet
  facet normal -0.707107 0 0.707107
    outer loop
      vertex -12.4142 -1 10.4497
      vertex -8.87868 3 13.9853
      vertex -12.4142 1 10.4497
    endloop
  endfacet
  facet normal -0.707107 0 0.707107
    outer loop
      vertex -12.4142 -1 10.4497
      vertex -8.87868 -3 13.9853
      vertex -8.87868 3 13.9853
    endloop
  endfacet
  facet normal -0.707107 5.61958e-08 0.707107
    outer loop
      vertex -8.87868 -3 13.9853
      vertex -12.4142 -1 10.4497
      vertex -19.4853 -3 3.37868
    endloop
  endfacet
  facet normal 0 1 0
    outer loop
      vertex -6.92586 3 14.9319
      vertex -7.42714 3 14.9249
      vertex -7.17672 3 14.9441
    endloop
  endfacet
  facet normal 0 1 0
    outer loop
      vertex -6.5 3 14.833
      vertex -6.92586 3 14.9319
      vertex -6.67851 3 14.8883
    endloop
  endfacet
  facet normal 0 1 0
    outer loop
      vertex -6.92586 3 14.9319
      vertex -6.5 3 14.833
      vertex -7.42714 3 14.9249
    endloop
  endfacet
  facet normal 0 1 0
    outer loop
      vertex -7.42714 3 14.9249
      vertex -6.5 3 14.833
      vertex -7.67317 3 14.8744
    endloop
  endfacet
  facet normal 0 1 0
    outer loop
      vertex -6.5 3 14.833
      vertex -7.91094 3 14.7934
      vertex -7.67317 3 14.8744
    endloop
  endfacet
  facet normal 0 1 0
    outer loop
      vertex -6.5 3 14.833
      vertex -8.13668 3 14.6833
      vertex -7.91094 3 14.7934
    endloop
  endfacet
  facet normal 0 1 0
    outer loop
      vertex -6.5 3 14.833
      vertex -8.34684 3 14.5458
      vertex -8.13668 3 14.6833
    endloop
  endfacet
  facet normal 0 1 0
    outer loop
      vertex -6.5 3 14.833
      vertex -8.53811 3 14.383
      vertex -8.34684 3 14.5458
    endloop
  endfacet
  facet normal 0 1 0
    outer loop
      vertex -6.5 3 14.833
      vertex -8.70747 3 14.1975
      vertex -8.53811 3 14.383
    endloop
  endfacet
  facet normal 0 1 0
    outer loop
      vertex -8.86386 3 13.9705
      vertex -8.70747 3 14.1975
      vertex -6.5 3 14.833
    endloop
  endfacet
  facet normal 0 1 0
    outer loop
      vertex -8.70747 3 14.1975
      vertex -8.86386 3 13.9705
      vertex -8.85225 3 13.9923
    endloop
  endfacet
  facet normal -0 1 0
    outer loop
      vertex -8.86386 3 13.9705
      vertex -6.5 3 14.833
      vertex -6.5 3 3.63604
    endloop
  endfacet
  facet normal 0 1 0
    outer loop
      vertex -19.4853 3 3.37868
      vertex -8.86386 3 13.9705
      vertex -6.5 3 3.63604
    endloop
  endfacet
  facet normal 0 1 0
    outer loop
      vertex -8.86386 3 13.9705
      vertex -19.4853 3 3.37868
      vertex -8.87868 3 13.9853
    endloop
  endfacet
  facet normal 0 1 -0
    outer loop
      vertex -10.136 3 -3.67394e-16
      vertex -19.4853 3 3.37868
      vertex -6.5 3 3.63604
    endloop
  endfacet
  facet normal 0 1 0
    outer loop
      vertex -19.4853 3 3.37868
      vertex -10.136 3 -3.67394e-16
      vertex -16.1066 3 -3.67394e-16
    endloop
  endfacet
  facet normal 0 -1 0
    outer loop
      vertex -10.136 1 -1.22465e-16
      vertex -6.5 1 4.53553
      vertex -12.4142 1 10.4497
    endloop
  endfacet
  facet normal 0 -1 0
    outer loop
      vertex -16.1066 1 -1.22465e-16
      vertex -12.4142 1 10.4497
      vertex -19.4853 1 3.37868
    endloop
  endfacet
  facet normal 0 -1 -0
    outer loop
      vertex -12.4142 1 10.4497
      vertex -16.1066 1 -1.22465e-16
      vertex -10.136 1 -1.22465e-16
    endloop
  endfacet
  facet normal 0 -1 -0
    outer loop
      vertex -6.5 1 4.53553
      vertex -10.136 1 -1.22465e-16
      vertex -6.5 1 3.63604
    endloop
  endfacet
  facet normal -0.707107 0 -0.707107
    outer loop
      vertex -6.5 -1 4.53553
      vertex -12.4142 1 10.4497
      vertex -6.5 1 4.53553
    endloop
  endfacet
  facet normal -0.707107 -0 -0.707107
    outer loop
      vertex -12.4142 1 10.4497
      vertex -6.5 -1 4.53553
      vertex -12.4142 -1 10.4497
    endloop
  endfacet
  facet normal 0 1 0
    outer loop
      vertex -10.136 -1 1.22465e-16
      vertex -6.5 -1 4.53553
      vertex -6.5 -1 3.63604
    endloop
  endfacet
  facet normal 0 1 0
    outer loop
      vertex -6.5 -1 4.53553
      vertex -10.136 -1 1.22465e-16
      vertex -12.4142 -1 10.4497
    endloop
  endfacet
  facet normal 0 1 0
    outer loop
      vertex -16.1066 -1 1.22465e-16
      vertex -12.4142 -1 10.4497
      vertex -10.136 -1 1.22465e-16
    endloop
  endfacet
  facet normal 0 1 0
    outer loop
      vertex -12.4142 -1 10.4497
      vertex -16.1066 -1 1.22465e-16
      vertex -19.4853 -1 3.37868
    endloop
  endfacet
  facet normal -0.707107 -8.65956e-17 -0.707107
    outer loop
      vertex -16.1066 -3 3.67394e-16
      vertex -19.4853 -1 3.37868
      vertex -16.1066 -1 1.22465e-16
    endloop
  endfacet
  facet normal -0.707107 -0 -0.707107
    outer loop
      vertex -19.4853 -1 3.37868
      vertex -16.1066 -3 3.67394e-16
      vertex -19.4853 -3 3.37868
    endloop
  endfacet
  facet normal 0 -1 0
    outer loop
      vertex -8.87868 -3 13.9853
      vertex -6.5 -3 3.63604
      vertex -6.5 -3 11.6066
    endloop
  endfacet
  facet normal 0 -1 0
    outer loop
      vertex -19.4853 -3 3.37868
      vertex -6.5 -3 3.63604
      vertex -8.87868 -3 13.9853
    endloop
  endfacet
  facet normal 0 -1 0
    outer loop
      vertex -10.136 -3 3.67394e-16
      vertex -19.4853 -3 3.37868
      vertex -16.1066 -3 3.67394e-16
    endloop
  endfacet
  facet normal 0 -1 0
    outer loop
      vertex -19.4853 -3 3.37868
      vertex -10.136 -3 3.67394e-16
      vertex -6.5 -3 3.63604
    endloop
  endfacet
  facet normal 0 -1 0
    outer loop
      vertex -6.5 -3 11.6066
      vertex -7.17672 -3 14.9441
      vertex -7.42714 -3 14.9249
    endloop
  endfacet
  facet normal 0 -1 0
    outer loop
      vertex -7.17672 -3 14.9441
      vertex -6.5 -3 11.6066
      vertex -6.92586 -3 14.9319
    endloop
  endfacet
  facet normal 0 -1 0
    outer loop
      vertex -6.5 -3 11.6066
      vertex -7.42714 -3 14.9249
      vertex -7.67317 -3 14.8744
    endloop
  endfacet
  facet normal 0 -1 0
    outer loop
      vertex -6.92586 -3 14.9319
      vertex -6.5 -3 11.6066
      vertex -6.67851 -3 14.8883
    endloop
  endfacet
  facet normal 0 -1 0
    outer loop
      vertex -6.5 -3 11.6066
      vertex -7.67317 -3 14.8744
      vertex -7.91094 -3 14.7934
    endloop
  endfacet
  facet normal 0 -1 0
    outer loop
      vertex -6.5 -3 11.6066
      vertex -7.91094 -3 14.7934
      vertex -8.13668 -3 14.6833
    endloop
  endfacet
  facet normal 0 -1 0
    outer loop
      vertex -6.5 -3 11.6066
      vertex -8.13668 -3 14.6833
      vertex -8.34684 -3 14.5458
    endloop
  endfacet
  facet normal 0 -1 0
    outer loop
      vertex -6.5 -3 11.6066
      vertex -8.34684 -3 14.5458
      vertex -8.53811 -3 14.383
    endloop
  endfacet
  facet normal 0 -1 0
    outer loop
      vertex -6.5 -3 11.6066
      vertex -8.53811 -3 14.383
      vertex -8.70747 -3 14.1975
    endloop
  endfacet
  facet normal 0 -1 0
    outer loop
      vertex -8.86386 -3 13.9705
      vertex -8.70747 -3 14.1975
      vertex -8.85225 -3 13.9923
    endloop
  endfacet
  facet normal 0 -1 -0
    outer loop
      vertex -8.70747 -3 14.1975
      vertex -8.86386 -3 13.9705
      vertex -6.5 -3 11.6066
    endloop
  endfacet
  facet normal 0 -1 0
    outer loop
      vertex -6.67851 -3 14.8883
      vertex -6.5 -3 11.6066
      vertex -6.5 -3 14.833
    endloop
  endfacet
  facet normal -0.817146 0 0.576431
    outer loop
      vertex -8.85225 -3 13.9923
      vertex -8.70747 3 14.1975
      vertex -8.85225 3 13.9923
    endloop
  endfacet
  facet normal -0.817146 0 0.576431
    outer loop
      vertex -8.70747 3 14.1975
      vertex -8.85225 -3 13.9923
      vertex -8.70747 -3 14.1975
    endloop
  endfacet
  facet normal -0.547562 0 0.836765
    outer loop
      vertex -8.34684 3 14.5458
      vertex -8.13668 -3 14.6833
      vertex -8.13668 3 14.6833
    endloop
  endfacet
  facet normal -0.547562 0 0.836765
    outer loop
      vertex -8.13668 -3 14.6833
      vertex -8.34684 3 14.5458
      vertex -8.34684 -3 14.5458
    endloop
  endfacet
  facet normal -0.882954 0 0.46946
    outer loop
      vertex -8.86386 -3 13.9705
      vertex -8.85225 3 13.9923
      vertex -8.86386 3 13.9705
    endloop
  endfacet
  facet normal -0.882954 0 0.46946
    outer loop
      vertex -8.85225 3 13.9923
      vertex -8.86386 -3 13.9705
      vertex -8.85225 -3 13.9923
    endloop
  endfacet
  facet normal -0.738455 0 0.674303
    outer loop
      vertex -8.70747 -3 14.1975
      vertex -8.53811 3 14.383
      vertex -8.70747 3 14.1975
    endloop
  endfacet
  facet normal -0.738455 0 0.674303
    outer loop
      vertex -8.53811 3 14.383
      vertex -8.70747 -3 14.1975
      vertex -8.53811 -3 14.383
    endloop
  endfacet
  facet normal 0.173651 0 0.984807
    outer loop
      vertex -6.92586 3 14.9319
      vertex -6.67851 -3 14.8883
      vertex -6.67851 3 14.8883
    endloop
  endfacet
  facet normal 0.173651 0 0.984807
    outer loop
      vertex -6.67851 -3 14.8883
      vertex -6.92586 3 14.9319
      vertex -6.92586 -3 14.9319
    endloop
  endfacet
  facet normal 0.295704 0 0.95528
    outer loop
      vertex -6.67851 3 14.8883
      vertex -6.5 -3 14.833
      vertex -6.5 3 14.833
    endloop
  endfacet
  facet normal 0.295704 0 0.95528
    outer loop
      vertex -6.5 -3 14.833
      vertex -6.67851 3 14.8883
      vertex -6.67851 -3 14.8883
    endloop
  endfacet
  facet normal -0.201077 0 0.979575
    outer loop
      vertex -7.67317 3 14.8744
      vertex -7.42714 -3 14.9249
      vertex -7.42714 3 14.9249
    endloop
  endfacet
  facet normal -0.201077 0 0.979575
    outer loop
      vertex -7.42714 -3 14.9249
      vertex -7.67317 3 14.8744
      vertex -7.67317 -3 14.8744
    endloop
  endfacet
  facet normal -0.64812 0 0.761538
    outer loop
      vertex -8.53811 3 14.383
      vertex -8.34684 -3 14.5458
      vertex -8.34684 3 14.5458
    endloop
  endfacet
  facet normal -0.64812 0 0.761538
    outer loop
      vertex -8.34684 -3 14.5458
      vertex -8.53811 3 14.383
      vertex -8.53811 -3 14.383
    endloop
  endfacet
  facet normal -0.322267 0 0.946649
    outer loop
      vertex -7.91094 3 14.7934
      vertex -7.67317 -3 14.8744
      vertex -7.67317 3 14.8744
    endloop
  endfacet
  facet normal -0.322267 0 0.946649
    outer loop
      vertex -7.67317 -3 14.8744
      vertex -7.91094 3 14.7934
      vertex -7.91094 -3 14.7934
    endloop
  endfacet
  facet normal -0.0767191 0 0.997053
    outer loop
      vertex -7.42714 3 14.9249
      vertex -7.17672 -3 14.9441
      vertex -7.17672 3 14.9441
    endloop
  endfacet
  facet normal -0.0767191 0 0.997053
    outer loop
      vertex -7.17672 -3 14.9441
      vertex -7.42714 3 14.9249
      vertex -7.42714 -3 14.9249
    endloop
  endfacet
  facet normal -0.438372 0 0.898794
    outer loop
      vertex -8.13668 3 14.6833
      vertex -7.91094 -3 14.7934
      vertex -7.91094 3 14.7934
    endloop
  endfacet
  facet normal -0.438372 0 0.898794
    outer loop
      vertex -7.91094 -3 14.7934
      vertex -8.13668 3 14.6833
      vertex -8.13668 -3 14.6833
    endloop
  endfacet
  facet normal 0.048849 0 0.998806
    outer loop
      vertex -7.17672 3 14.9441
      vertex -6.92586 -3 14.9319
      vertex -6.92586 3 14.9319
    endloop
  endfacet
  facet normal 0.048849 0 0.998806
    outer loop
      vertex -6.92586 -3 14.9319
      vertex -7.17672 3 14.9441
      vertex -7.17672 -3 14.9441
    endloop
  endfacet
  facet normal -0 0 1
    outer loop
      vertex 0.5 9 15
      vertex 2.5 -9 15
      vertex 2.5 9 15
    endloop
  endfacet
  facet normal 0 0 1
    outer loop
      vertex 2.5 -9 15
      vertex 0.5 9 15
      vertex 0.5 -9 15
    endloop
  endfacet
  facet normal 0 1 0
    outer loop
      vertex 2.5 9 15
      vertex 0.5 9 5
      vertex 0.5 9 15
    endloop
  endfacet
  facet normal 0 1 0
    outer loop
      vertex 0.5 9 5
      vertex 2.5 9 -5.47071e-16
      vertex -4.5 9 5
    endloop
  endfacet
  facet normal 0 1 -0
    outer loop
      vertex 2.5 9 -5.47071e-16
      vertex 0.5 9 5
      vertex 2.5 9 15
    endloop
  endfacet
  facet normal 0 1 -0
    outer loop
      vertex -4.5 9 5
      vertex -6.5 9 15
      vertex -4.5 9 15
    endloop
  endfacet
  facet normal 0 1 0
    outer loop
      vertex -4.5 9 5
      vertex -6.5 9 -2.54547e-15
      vertex -6.5 9 15
    endloop
  endfacet
  facet normal 0 1 0
    outer loop
      vertex -6.5 9 -2.54547e-15
      vertex -4.5 9 5
      vertex 2.5 9 -5.47071e-16
    endloop
  endfacet
  facet normal 2.22045e-16 -1.22465e-16 -1
    outer loop
      vertex 2.5 -9 1.65729e-15
      vertex -4.75 -4.5 -5.03621e-16
      vertex 2.5 9 -5.47071e-16
    endloop
  endfacet
  facet normal 2.22045e-16 -1.22465e-16 -1
    outer loop
      vertex -6.5 -9 -3.41108e-16
      vertex -4.75 -4.5 -5.03621e-16
      vertex 2.5 -9 1.65729e-15
    endloop
  endfacet
  facet normal 2.22045e-16 -1.22465e-16 -1
    outer loop
      vertex -4.75 -4.5 -5.03621e-16
      vertex -6.5 -9 -3.41108e-16
      vertex -6.5 -4.5 -8.92199e-16
    endloop
  endfacet
  facet normal 2.22045e-16 -1.22465e-16 -1
    outer loop
      vertex -4.75 4.5 -1.6058e-15
      vertex 2.5 9 -5.47071e-16
      vertex -4.75 -4.5 -5.03621e-16
    endloop
  endfacet
  facet normal 2.22045e-16 -1.22465e-16 -1
    outer loop
      vertex -6.5 9 -2.54547e-15
      vertex -4.75 4.5 -1.6058e-15
      vertex -6.5 4.5 -1.99438e-15
    endloop
  endfacet
  facet normal 2.22045e-16 -1.22465e-16 -1
    outer loop
      vertex -4.75 4.5 -1.6058e-15
      vertex -6.5 9 -2.54547e-15
      vertex 2.5 9 -5.47071e-16
    endloop
  endfacet
  facet normal 0 -1 0
    outer loop
      vertex -6.5 -9 15
      vertex -4.5 -9 5
      vertex -4.5 -9 15
    endloop
  endfacet
  facet normal 0 -1 0
    outer loop
      vertex -4.5 -9 5
      vertex 2.5 -9 1.65729e-15
      vertex 0.5 -9 5
    endloop
  endfacet
  facet normal 0 -1 -0
    outer loop
      vertex -4.5 -9 5
      vertex -6.5 -9 -3.41108e-16
      vertex 2.5 -9 1.65729e-15
    endloop
  endfacet
  facet normal 0 -1 0
    outer loop
      vertex -6.5 -9 -3.41108e-16
      vertex -4.5 -9 5
      vertex -6.5 -9 15
    endloop
  endfacet
  facet normal 0 -1 0
    outer loop
      vertex 0.5 -9 5
      vertex 2.5 -9 15
      vertex 0.5 -9 15
    endloop
  endfacet
  facet normal 0 -1 -0
    outer loop
      vertex 2.5 -9 15
      vertex 0.5 -9 5
      vertex 2.5 -9 1.65729e-15
    endloop
  endfacet
  facet normal 1 0 0
    outer loop
      vertex 2.5 1.5 6.15109
      vertex 2.5 9 15
      vertex 2.5 1.5 10.0131
    endloop
  endfacet
  facet normal 1 0 0
    outer loop
      vertex 2.5 9 15
      vertex 2.5 -1.5 10.0131
      vertex 2.5 1.5 10.0131
    endloop
  endfacet
  facet normal 1 0 0
    outer loop
      vertex 2.5 -1.5 10.0131
      vertex 2.5 -9 15
      vertex 2.5 -1.5 6.15109
    endloop
  endfacet
  facet normal 1 -0 0
    outer loop
      vertex 2.5 -9 15
      vertex 2.5 -1.5 10.0131
      vertex 2.5 9 15
    endloop
  endfacet
  facet normal 1 0 0
    outer loop
      vertex 2.5 9 15
      vertex 2.5 1.5 6.15109
      vertex 2.5 9 -5.47071e-16
    endloop
  endfacet
  facet normal 1 -0 0
    outer loop
      vertex 2.5 -1.5 6.15109
      vertex 2.5 9 -5.47071e-16
      vertex 2.5 1.5 6.15109
    endloop
  endfacet
  facet normal 1 0 0
    outer loop
      vertex 2.5 -1.5 6.15109
      vertex 2.5 -9 1.65729e-15
      vertex 2.5 9 -5.47071e-16
    endloop
  endfacet
  facet normal 1 0 0
    outer loop
      vertex 2.5 -9 1.65729e-15
      vertex 2.5 -1.5 6.15109
      vertex 2.5 -9 15
    endloop
  endfacet
  facet normal -1 0 0
    outer loop
      vertex 0.5 -9 5
      vertex 0.5 9 15
      vertex 0.5 9 5
    endloop
  endfacet
  facet normal -1 -0 0
    outer loop
      vertex 0.5 9 15
      vertex 0.5 -9 5
      vertex 0.5 -9 15
    endloop
  endfacet
  facet normal -0 0 1
    outer loop
      vertex -4.5 9 5
      vertex 0.5 -9 5
      vertex 0.5 9 5
    endloop
  endfacet
  facet normal 0 0 1
    outer loop
      vertex 0.5 -9 5
      vertex -4.5 9 5
      vertex -4.5 -9 5
    endloop
  endfacet
  facet normal -0 0 1
    outer loop
      vertex -6.5 9 15
      vertex -4.5 -9 15
      vertex -4.5 9 15
    endloop
  endfacet
  facet normal 0 0 1
    outer loop
      vertex -4.5 -9 15
      vertex -6.5 9 15
      vertex -6.5 -9 15
    endloop
  endfacet
  facet normal -1 0 0
    outer loop
      vertex -6.5 -4.5 -8.92199e-16
      vertex -6.5 -9 -3.41108e-16
      vertex -6.5 -4.5 5.51091e-16
    endloop
  endfacet
  facet normal -1 0 0
    outer loop
      vertex -6.5 4.5 -5.51091e-16
      vertex -6.5 1 3.63604
      vertex -6.5 3 3.63604
    endloop
  endfacet
  facet normal -1 0 0
    outer loop
      vertex -6.5 1 3.63604
      vertex -6.5 -1 3.63604
      vertex -6.5 1 4.53553
    endloop
  endfacet
  facet normal -1 0 0
    outer loop
      vertex -6.5 4.5 -5.51091e-16
      vertex -6.5 -1 3.63604
      vertex -6.5 1 3.63604
    endloop
  endfacet
  facet normal -1 0 0
    outer loop
      vertex -6.5 -4.5 5.51091e-16
      vertex -6.5 -1 3.63604
      vertex -6.5 4.5 -5.51091e-16
    endloop
  endfacet
  facet normal -1 0 0
    outer loop
      vertex -6.5 -9 -3.41108e-16
      vertex -6.5 -3 3.63604
      vertex -6.5 -4.5 5.51091e-16
    endloop
  endfacet
  facet normal -1 -0 0
    outer loop
      vertex -6.5 -1 3.63604
      vertex -6.5 -4.5 5.51091e-16
      vertex -6.5 -3 3.63604
    endloop
  endfacet
  facet normal -1 0 0
    outer loop
      vertex -6.5 4.5 -5.51091e-16
      vertex -6.5 9 -2.54547e-15
      vertex -6.5 4.5 -1.99438e-15
    endloop
  endfacet
  facet normal -1 0 0
    outer loop
      vertex -6.5 3 3.63604
      vertex -6.5 9 -2.54547e-15
      vertex -6.5 4.5 -5.51091e-16
    endloop
  endfacet
  facet normal -1 0 0
    outer loop
      vertex -6.5 9 -2.54547e-15
      vertex -6.5 3 3.63604
      vertex -6.5 9 15
    endloop
  endfacet
  facet normal -1 0 0
    outer loop
      vertex -6.5 3 14.833
      vertex -6.5 9 15
      vertex -6.5 3 3.63604
    endloop
  endfacet
  facet normal -1 0 0
    outer loop
      vertex -6.5 -3 14.833
      vertex -6.5 9 15
      vertex -6.5 3 14.833
    endloop
  endfacet
  facet normal -1 0 0
    outer loop
      vertex -6.5 -9 15
      vertex -6.5 -3 3.63604
      vertex -6.5 -9 -3.41108e-16
    endloop
  endfacet
  facet normal -1 0 0
    outer loop
      vertex -6.5 -3 3.63604
      vertex -6.5 -9 15
      vertex -6.5 -3 11.6066
    endloop
  endfacet
  facet normal -1 0 0
    outer loop
      vertex -6.5 -3 14.833
      vertex -6.5 -9 15
      vertex -6.5 9 15
    endloop
  endfacet
  facet normal -1 0 0
    outer loop
      vertex -6.5 -3 11.6066
      vertex -6.5 -9 15
      vertex -6.5 -3 14.833
    endloop
  endfacet
  facet normal -1 -0 0
    outer loop
      vertex -6.5 1 4.53553
      vertex -6.5 -1 3.63604
      vertex -6.5 -1 4.53553
    endloop
  endfacet
  facet normal 1 0 0
    outer loop
      vertex -4.5 3 5.63604
      vertex -4.5 1.86396 5.63604
      vertex -4.5 2 5.5
    endloop
  endfacet
  facet normal 1 0 0
    outer loop
      vertex -4.5 9 15
      vertex -4.5 3 9.6066
      vertex -4.5 9 5
    endloop
  endfacet
  facet normal 1 -0 0
    outer loop
      vertex -4.5 -3 10.5
      vertex -4.5 3 9.6066
      vertex -4.5 9 15
    endloop
  endfacet
  facet normal 1 0 0
    outer loop
      vertex -4.5 3 9.6066
      vertex -4.5 -3 10.5
      vertex -4.5 -2.1066 9.6066
    endloop
  endfacet
  facet normal 1 -0 0
    outer loop
      vertex -4.5 -9 15
      vertex -4.5 -3 10.5
      vertex -4.5 9 15
    endloop
  endfacet
  facet normal 1 0 0
    outer loop
      vertex -4.5 -9 5
      vertex -4.5 -3.5 10.5
      vertex -4.5 -9 15
    endloop
  endfacet
  facet normal 1 0 0
    outer loop
      vertex -4.5 -3 10.5
      vertex -4.5 -9 15
      vertex -4.5 -3.5 10.5
    endloop
  endfacet
  facet normal 1 -0 0
    outer loop
      vertex -4.5 3 5.63604
      vertex -4.5 9 5
      vertex -4.5 3 9.6066
    endloop
  endfacet
  facet normal 1 -0 0
    outer loop
      vertex -4.5 2 5.5
      vertex -4.5 9 5
      vertex -4.5 3 5.63604
    endloop
  endfacet
  facet normal 1 0 0
    outer loop
      vertex -4.5 -9 5
      vertex -4.5 2 5.5
      vertex -4.5 -3.5 5.5
    endloop
  endfacet
  facet normal 1 0 0
    outer loop
      vertex -4.5 2 5.5
      vertex -4.5 -9 5
      vertex -4.5 9 5
    endloop
  endfacet
  facet normal 1 0 0
    outer loop
      vertex -4.5 -3.5 10.5
      vertex -4.5 -9 5
      vertex -4.5 -3.5 5.5
    endloop
  endfacet
  facet normal 0.971961 0 -0.235142
    outer loop
      vertex 9.9337 -1.5 7.38726
      vertex 9.81558 1.5 6.89902
      vertex 9.9337 1.5 7.38726
    endloop
  endfacet
  facet normal 0.971961 0 -0.235142
    outer loop
      vertex 9.81558 1.5 6.89902
      vertex 9.9337 -1.5 7.38726
      vertex 9.81558 -1.5 6.89902
    endloop
  endfacet
  facet normal 0.934825 0 -0.355107
    outer loop
      vertex 9.81558 -1.5 6.89902
      vertex 9.6372 1.5 6.42943
      vertex 9.81558 1.5 6.89902
    endloop
  endfacet
  facet normal 0.934825 0 -0.355107
    outer loop
      vertex 9.6372 1.5 6.42943
      vertex 9.81558 -1.5 6.89902
      vertex 9.6372 -1.5 6.42943
    endloop
  endfacet
  facet normal 0.547564 0 -0.836764
    outer loop
      vertex 7.97024 -1.5 4.60387
      vertex 8.39056 1.5 4.87893
      vertex 8.39056 -1.5 4.87893
    endloop
  endfacet
  facet normal 0.547564 0 -0.836764
    outer loop
      vertex 8.39056 1.5 4.87893
      vertex 7.97024 -1.5 4.60387
      vertex 7.97024 1.5 4.60387
    endloop
  endfacet
  facet normal -0.523985 0 -0.851727
    outer loop
      vertex 3.68874 -1.5 4.81327
      vertex 4.11658 1.5 4.55006
      vertex 4.11658 -1.5 4.55006
    endloop
  endfacet
  facet normal -0.523985 0 -0.851727
    outer loop
      vertex 4.11658 1.5 4.55006
      vertex 3.68874 -1.5 4.81327
      vertex 3.68874 1.5 4.81327
    endloop
  endfacet
  facet normal 0.817145 0 -0.576432
    outer loop
      vertex 9.40138 -1.5 5.98591
      vertex 9.11182 1.5 5.57544
      vertex 9.40138 1.5 5.98591
    endloop
  endfacet
  facet normal 0.817145 0 -0.576432
    outer loop
      vertex 9.11182 1.5 5.57544
      vertex 9.40138 -1.5 5.98591
      vertex 9.11182 -1.5 5.57544
    endloop
  endfacet
  facet normal 0.438372 0 -0.898794
    outer loop
      vertex 7.51875 -1.5 4.38367
      vertex 7.97024 1.5 4.60387
      vertex 7.97024 -1.5 4.60387
    endloop
  endfacet
  facet normal 0.438372 0 -0.898794
    outer loop
      vertex 7.97024 1.5 4.60387
      vertex 7.51875 -1.5 4.38367
      vertex 7.51875 1.5 4.38367
    endloop
  endfacet
  facet normal -0.869496 0 -0.493941
    outer loop
      vertex 2.64741 -1.5 5.8916
      vertex 2.5 1.5 6.15109
      vertex 2.64741 1.5 5.8916
    endloop
  endfacet
  facet normal -0.869496 -0 -0.493941
    outer loop
      vertex 2.5 1.5 6.15109
      vertex 2.64741 -1.5 5.8916
      vertex 2.5 -1.5 6.15109
    endloop
  endfacet
  facet normal -0.295707 0 -0.955279
    outer loop
      vertex 4.57404 -1.5 4.34255
      vertex 5.0539 1.5 4.19401
      vertex 5.0539 -1.5 4.19401
    endloop
  endfacet
  facet normal -0.295707 0 -0.955279
    outer loop
      vertex 5.0539 1.5 4.19401
      vertex 4.57404 -1.5 4.34255
      vertex 4.57404 1.5 4.34255
    endloop
  endfacet
  facet normal 0.990268 -0 0.139173
    outer loop
      vertex 9.91277 -1.5 8.88616
      vertex 9.98268 1.5 8.38873
      vertex 9.91277 1.5 8.88616
    endloop
  endfacet
  facet normal 0.990268 0 0.139173
    outer loop
      vertex 9.98268 1.5 8.38873
      vertex 9.91277 -1.5 8.88616
      vertex 9.98268 -1.5 8.38873
    endloop
  endfacet
  facet normal 0.295707 0 0.955279
    outer loop
      vertex 6.93504 1.5 11.9697
      vertex 7.4149 -1.5 11.8212
      vertex 7.4149 1.5 11.8212
    endloop
  endfacet
  facet normal 0.295707 0 0.955279
    outer loop
      vertex 7.4149 -1.5 11.8212
      vertex 6.93504 1.5 11.9697
      vertex 6.93504 -1.5 11.9697
    endloop
  endfacet
  facet normal 0.882948 0 -0.469471
    outer loop
      vertex 9.6372 -1.5 6.42943
      vertex 9.40138 1.5 5.98591
      vertex 9.6372 1.5 6.42943
    endloop
  endfacet
  facet normal 0.882948 0 -0.469471
    outer loop
      vertex 9.40138 1.5 5.98591
      vertex 9.6372 -1.5 6.42943
      vertex 9.40138 -1.5 5.98591
    endloop
  endfacet
  facet normal 0.738455 0 -0.674302
    outer loop
      vertex 9.11182 -1.5 5.57544
      vertex 8.7731 1.5 5.20449
      vertex 9.11182 1.5 5.57544
    endloop
  endfacet
  facet normal 0.738455 0 -0.674302
    outer loop
      vertex 8.7731 1.5 5.20449
      vertex 9.11182 -1.5 5.57544
      vertex 8.7731 -1.5 5.20449
    endloop
  endfacet
  facet normal 0.0767193 0 -0.997053
    outer loop
      vertex 6.05032 -1.5 4.08224
      vertex 6.55116 1.5 4.12078
      vertex 6.55116 -1.5 4.12078
    endloop
  endfacet
  facet normal 0.0767193 0 -0.997053
    outer loop
      vertex 6.55116 1.5 4.12078
      vertex 6.05032 -1.5 4.08224
      vertex 6.05032 1.5 4.08224
    endloop
  endfacet
  facet normal 0 -1 0
    outer loop
      vertex 5.43778 -1.5 12.0429
      vertex 6.44034 -1.5 12.0569
      vertex 5.93862 -1.5 12.0815
    endloop
  endfacet
  facet normal 0 -1 0
    outer loop
      vertex 5.43778 -1.5 12.0429
      vertex 6.93504 -1.5 11.9697
      vertex 6.44034 -1.5 12.0569
    endloop
  endfacet
  facet normal 0 -1 0
    outer loop
      vertex 4.94571 -1.5 11.9419
      vertex 6.93504 -1.5 11.9697
      vertex 5.43778 -1.5 12.0429
    endloop
  endfacet
  facet normal 0 -1 0
    outer loop
      vertex 4.94571 -1.5 11.9419
      vertex 7.4149 -1.5 11.8212
      vertex 6.93504 -1.5 11.9697
    endloop
  endfacet
  facet normal 0 -1 0
    outer loop
      vertex 4.47019 -1.5 11.78
      vertex 7.4149 -1.5 11.8212
      vertex 4.94571 -1.5 11.9419
    endloop
  endfacet
  facet normal 0 -1 0
    outer loop
      vertex 4.47019 -1.5 11.78
      vertex 7.87235 -1.5 11.6136
      vertex 7.4149 -1.5 11.8212
    endloop
  endfacet
  facet normal 0 -1 0
    outer loop
      vertex 4.0187 -1.5 11.5598
      vertex 7.87235 -1.5 11.6136
      vertex 4.47019 -1.5 11.78
    endloop
  endfacet
  facet normal 0 -1 0
    outer loop
      vertex 4.0187 -1.5 11.5598
      vertex 8.3002 -1.5 11.3504
      vertex 7.87235 -1.5 11.6136
    endloop
  endfacet
  facet normal 0 -1 0
    outer loop
      vertex 3.59837 -1.5 11.2848
      vertex 8.3002 -1.5 11.3504
      vertex 4.0187 -1.5 11.5598
    endloop
  endfacet
  facet normal 0 -1 0
    outer loop
      vertex 3.59837 -1.5 11.2848
      vertex 8.69168 -1.5 11.0357
      vertex 8.3002 -1.5 11.3504
    endloop
  endfacet
  facet normal 0 -1 0
    outer loop
      vertex 3.21583 -1.5 10.9592
      vertex 8.69168 -1.5 11.0357
      vertex 3.59837 -1.5 11.2848
    endloop
  endfacet
  facet normal 0 -1 0
    outer loop
      vertex 3.21583 -1.5 10.9592
      vertex 9.04062 -1.5 10.6743
      vertex 8.69168 -1.5 11.0357
    endloop
  endfacet
  facet normal 0 -1 0
    outer loop
      vertex 2.5 -1.5 10.0131
      vertex 3.21583 -1.5 10.9592
      vertex 2.87712 -1.5 10.5883
    endloop
  endfacet
  facet normal 0 -1 -0
    outer loop
      vertex 3.21583 -1.5 10.9592
      vertex 2.5 -1.5 10.0131
      vertex 9.04062 -1.5 10.6743
    endloop
  endfacet
  facet normal 0 -1 0
    outer loop
      vertex 2.5 -1.5 10.0131
      vertex 2.87712 -1.5 10.5883
      vertex 2.58756 -1.5 10.1778
    endloop
  endfacet
  facet normal 0 -1 -0
    outer loop
      vertex 9.04062 -1.5 10.6743
      vertex 2.5 -1.5 10.0131
      vertex 9.34153 -1.5 10.2721
    endloop
  endfacet
  facet normal 0 -1 0
    outer loop
      vertex 2.5 -1.5 10.0131
      vertex 9.58964 -1.5 9.83534
      vertex 9.34153 -1.5 10.2721
    endloop
  endfacet
  facet normal 0 -1 0
    outer loop
      vertex 2.5 -1.5 10.0131
      vertex 9.78106 -1.5 9.37092
      vertex 9.58964 -1.5 9.83534
    endloop
  endfacet
  facet normal 0 -1 0
    outer loop
      vertex 2.5 -1.5 10.0131
      vertex 9.91277 -1.5 8.88616
      vertex 9.78106 -1.5 9.37092
    endloop
  endfacet
  facet normal 0 -1 0
    outer loop
      vertex 2.5 -1.5 10.0131
      vertex 9.98268 -1.5 8.38873
      vertex 9.91277 -1.5 8.88616
    endloop
  endfacet
  facet normal 0 -1 0
    outer loop
      vertex 2.5 -1.5 10.0131
      vertex 9.98969 -1.5 7.88645
      vertex 9.98268 -1.5 8.38873
    endloop
  endfacet
  facet normal 0 -1 0
    outer loop
      vertex 2.5 -1.5 10.0131
      vertex 9.9337 -1.5 7.38726
      vertex 9.98969 -1.5 7.88645
    endloop
  endfacet
  facet normal 0 -1 0
    outer loop
      vertex 2.5 -1.5 10.0131
      vertex 9.81558 -1.5 6.89902
      vertex 9.9337 -1.5 7.38726
    endloop
  endfacet
  facet normal 0 -1 0
    outer loop
      vertex 2.5 -1.5 10.0131
      vertex 9.6372 -1.5 6.42943
      vertex 9.81558 -1.5 6.89902
    endloop
  endfacet
  facet normal 0 -1 0
    outer loop
      vertex 2.5 -1.5 6.15109
      vertex 9.6372 -1.5 6.42943
      vertex 2.5 -1.5 10.0131
    endloop
  endfacet
  facet normal 0 -1 0
    outer loop
      vertex 2.5 -1.5 6.15109
      vertex 9.40138 -1.5 5.98591
      vertex 9.6372 -1.5 6.42943
    endloop
  endfacet
  facet normal 0 -1 0
    outer loop
      vertex 2.94831 -1.5 5.48937
      vertex 2.5 -1.5 6.15109
      vertex 2.64741 -1.5 5.8916
    endloop
  endfacet
  facet normal 0 -1 0
    outer loop
      vertex 2.5 -1.5 6.15109
      vertex 9.11182 -1.5 5.57544
      vertex 9.40138 -1.5 5.98591
    endloop
  endfacet
  facet normal 0 -1 0
    outer loop
      vertex 2.5 -1.5 6.15109
      vertex 2.94831 -1.5 5.48937
      vertex 9.11182 -1.5 5.57544
    endloop
  endfacet
  facet normal 0 -1 0
    outer loop
      vertex 2.94831 -1.5 5.48937
      vertex 8.7731 -1.5 5.20449
      vertex 9.11182 -1.5 5.57544
    endloop
  endfacet
  facet normal 0 -1 0
    outer loop
      vertex 3.29726 -1.5 5.12803
      vertex 8.7731 -1.5 5.20449
      vertex 2.94831 -1.5 5.48937
    endloop
  endfacet
  facet normal 0 -1 0
    outer loop
      vertex 3.29726 -1.5 5.12803
      vertex 8.39056 -1.5 4.87893
      vertex 8.7731 -1.5 5.20449
    endloop
  endfacet
  facet normal 0 -1 0
    outer loop
      vertex 3.68874 -1.5 4.81327
      vertex 8.39056 -1.5 4.87893
      vertex 3.29726 -1.5 5.12803
    endloop
  endfacet
  facet normal 0 -1 0
    outer loop
      vertex 3.68874 -1.5 4.81327
      vertex 7.97024 -1.5 4.60387
      vertex 8.39056 -1.5 4.87893
    endloop
  endfacet
  facet normal 0 -1 0
    outer loop
      vertex 4.11658 -1.5 4.55006
      vertex 7.97024 -1.5 4.60387
      vertex 3.68874 -1.5 4.81327
    endloop
  endfacet
  facet normal 0 -1 0
    outer loop
      vertex 4.11658 -1.5 4.55006
      vertex 7.51875 -1.5 4.38367
      vertex 7.97024 -1.5 4.60387
    endloop
  endfacet
  facet normal 0 -1 0
    outer loop
      vertex 4.57404 -1.5 4.34255
      vertex 7.51875 -1.5 4.38367
      vertex 4.11658 -1.5 4.55006
    endloop
  endfacet
  facet normal 0 -1 0
    outer loop
      vertex 4.57404 -1.5 4.34255
      vertex 7.04322 -1.5 4.22179
      vertex 7.51875 -1.5 4.38367
    endloop
  endfacet
  facet normal 0 -1 0
    outer loop
      vertex 5.0539 -1.5 4.19401
      vertex 7.04322 -1.5 4.22179
      vertex 4.57404 -1.5 4.34255
    endloop
  endfacet
  facet normal 0 -1 0
    outer loop
      vertex 5.0539 -1.5 4.19401
      vertex 6.55116 -1.5 4.12078
      vertex 7.04322 -1.5 4.22179
    endloop
  endfacet
  facet normal 0 -1 0
    outer loop
      vertex 5.54859 -1.5 4.10678
      vertex 6.55116 -1.5 4.12078
      vertex 5.0539 -1.5 4.19401
    endloop
  endfacet
  facet normal 0 -1 0
    outer loop
      vertex 6.55116 -1.5 4.12078
      vertex 5.54859 -1.5 4.10678
      vertex 6.05032 -1.5 4.08224
    endloop
  endfacet
  facet normal 0 1 0
    outer loop
      vertex 6.44034 1.5 12.0569
      vertex 5.43778 1.5 12.0429
      vertex 5.93862 1.5 12.0815
    endloop
  endfacet
  facet normal 0 1 0
    outer loop
      vertex 6.93504 1.5 11.9697
      vertex 5.43778 1.5 12.0429
      vertex 6.44034 1.5 12.0569
    endloop
  endfacet
  facet normal 0 1 0
    outer loop
      vertex 6.93504 1.5 11.9697
      vertex 4.94571 1.5 11.9419
      vertex 5.43778 1.5 12.0429
    endloop
  endfacet
  facet normal 0 1 0
    outer loop
      vertex 7.4149 1.5 11.8212
      vertex 4.94571 1.5 11.9419
      vertex 6.93504 1.5 11.9697
    endloop
  endfacet
  facet normal 0 1 0
    outer loop
      vertex 7.4149 1.5 11.8212
      vertex 4.47019 1.5 11.78
      vertex 4.94571 1.5 11.9419
    endloop
  endfacet
  facet normal 0 1 0
    outer loop
      vertex 7.87235 1.5 11.6136
      vertex 4.47019 1.5 11.78
      vertex 7.4149 1.5 11.8212
    endloop
  endfacet
  facet normal 0 1 0
    outer loop
      vertex 7.87235 1.5 11.6136
      vertex 4.0187 1.5 11.5598
      vertex 4.47019 1.5 11.78
    endloop
  endfacet
  facet normal 0 1 0
    outer loop
      vertex 8.3002 1.5 11.3504
      vertex 4.0187 1.5 11.5598
      vertex 7.87235 1.5 11.6136
    endloop
  endfacet
  facet normal 0 1 0
    outer loop
      vertex 8.3002 1.5 11.3504
      vertex 3.59837 1.5 11.2848
      vertex 4.0187 1.5 11.5598
    endloop
  endfacet
  facet normal 0 1 0
    outer loop
      vertex 8.69168 1.5 11.0357
      vertex 3.59837 1.5 11.2848
      vertex 8.3002 1.5 11.3504
    endloop
  endfacet
  facet normal 0 1 0
    outer loop
      vertex 8.69168 1.5 11.0357
      vertex 3.21583 1.5 10.9592
      vertex 3.59837 1.5 11.2848
    endloop
  endfacet
  facet normal 0 1 0
    outer loop
      vertex 9.04062 1.5 10.6743
      vertex 3.21583 1.5 10.9592
      vertex 8.69168 1.5 11.0357
    endloop
  endfacet
  facet normal 0 1 0
    outer loop
      vertex 2.5 1.5 10.0131
      vertex 3.21583 1.5 10.9592
      vertex 9.04062 1.5 10.6743
    endloop
  endfacet
  facet normal 0 1 0
    outer loop
      vertex 2.5 1.5 10.0131
      vertex 9.04062 1.5 10.6743
      vertex 9.34153 1.5 10.2721
    endloop
  endfacet
  facet normal 0 1 0
    outer loop
      vertex 3.21583 1.5 10.9592
      vertex 2.5 1.5 10.0131
      vertex 2.87712 1.5 10.5883
    endloop
  endfacet
  facet normal 0 1 0
    outer loop
      vertex 2.87712 1.5 10.5883
      vertex 2.5 1.5 10.0131
      vertex 2.58756 1.5 10.1778
    endloop
  endfacet
  facet normal 0 1 0
    outer loop
      vertex 9.58964 1.5 9.83534
      vertex 2.5 1.5 10.0131
      vertex 9.34153 1.5 10.2721
    endloop
  endfacet
  facet normal 0 1 0
    outer loop
      vertex 9.78106 1.5 9.37092
      vertex 2.5 1.5 10.0131
      vertex 9.58964 1.5 9.83534
    endloop
  endfacet
  facet normal 0 1 0
    outer loop
      vertex 9.91277 1.5 8.88616
      vertex 2.5 1.5 10.0131
      vertex 9.78106 1.5 9.37092
    endloop
  endfacet
  facet normal 0 1 0
    outer loop
      vertex 9.98268 1.5 8.38873
      vertex 2.5 1.5 10.0131
      vertex 9.91277 1.5 8.88616
    endloop
  endfacet
  facet normal 0 1 0
    outer loop
      vertex 9.98969 1.5 7.88645
      vertex 2.5 1.5 10.0131
      vertex 9.98268 1.5 8.38873
    endloop
  endfacet
  facet normal 0 1 -0
    outer loop
      vertex 9.9337 1.5 7.38726
      vertex 2.5 1.5 10.0131
      vertex 9.98969 1.5 7.88645
    endloop
  endfacet
  facet normal 0 1 -0
    outer loop
      vertex 9.81558 1.5 6.89902
      vertex 2.5 1.5 10.0131
      vertex 9.9337 1.5 7.38726
    endloop
  endfacet
  facet normal 0 1 -0
    outer loop
      vertex 9.6372 1.5 6.42943
      vertex 2.5 1.5 10.0131
      vertex 9.81558 1.5 6.89902
    endloop
  endfacet
  facet normal 0 1 0
    outer loop
      vertex 9.6372 1.5 6.42943
      vertex 2.5 1.5 6.15109
      vertex 2.5 1.5 10.0131
    endloop
  endfacet
  facet normal 0 1 -0
    outer loop
      vertex 9.40138 1.5 5.98591
      vertex 2.5 1.5 6.15109
      vertex 9.6372 1.5 6.42943
    endloop
  endfacet
  facet normal 0 1 -0
    outer loop
      vertex 9.11182 1.5 5.57544
      vertex 2.5 1.5 6.15109
      vertex 9.40138 1.5 5.98591
    endloop
  endfacet
  facet normal 0 1 -0
    outer loop
      vertex 2.94831 1.5 5.48937
      vertex 2.5 1.5 6.15109
      vertex 9.11182 1.5 5.57544
    endloop
  endfacet
  facet normal 0 1 0
    outer loop
      vertex 2.5 1.5 6.15109
      vertex 2.94831 1.5 5.48937
      vertex 2.64741 1.5 5.8916
    endloop
  endfacet
  facet normal 0 1 -0
    outer loop
      vertex 8.7731 1.5 5.20449
      vertex 2.94831 1.5 5.48937
      vertex 9.11182 1.5 5.57544
    endloop
  endfacet
  facet normal 0 1 0
    outer loop
      vertex 8.7731 1.5 5.20449
      vertex 3.29726 1.5 5.12803
      vertex 2.94831 1.5 5.48937
    endloop
  endfacet
  facet normal 0 1 -0
    outer loop
      vertex 8.39056 1.5 4.87893
      vertex 3.29726 1.5 5.12803
      vertex 8.7731 1.5 5.20449
    endloop
  endfacet
  facet normal 0 1 0
    outer loop
      vertex 8.39056 1.5 4.87893
      vertex 3.68874 1.5 4.81327
      vertex 3.29726 1.5 5.12803
    endloop
  endfacet
  facet normal 0 1 -0
    outer loop
      vertex 7.97024 1.5 4.60387
      vertex 3.68874 1.5 4.81327
      vertex 8.39056 1.5 4.87893
    endloop
  endfacet
  facet normal 0 1 0
    outer loop
      vertex 7.97024 1.5 4.60387
      vertex 4.11658 1.5 4.55006
      vertex 3.68874 1.5 4.81327
    endloop
  endfacet
  facet normal 0 1 -0
    outer loop
      vertex 7.51875 1.5 4.38367
      vertex 4.11658 1.5 4.55006
      vertex 7.97024 1.5 4.60387
    endloop
  endfacet
  facet normal 0 1 0
    outer loop
      vertex 7.51875 1.5 4.38367
      vertex 4.57404 1.5 4.34255
      vertex 4.11658 1.5 4.55006
    endloop
  endfacet
  facet normal 0 1 -0
    outer loop
      vertex 7.04322 1.5 4.22179
      vertex 4.57404 1.5 4.34255
      vertex 7.51875 1.5 4.38367
    endloop
  endfacet
  facet normal 0 1 0
    outer loop
      vertex 7.04322 1.5 4.22179
      vertex 5.0539 1.5 4.19401
      vertex 4.57404 1.5 4.34255
    endloop
  endfacet
  facet normal 0 1 -0
    outer loop
      vertex 6.55116 1.5 4.12078
      vertex 5.0539 1.5 4.19401
      vertex 7.04322 1.5 4.22179
    endloop
  endfacet
  facet normal 0 1 0
    outer loop
      vertex 6.55116 1.5 4.12078
      vertex 5.54859 1.5 4.10678
      vertex 5.0539 1.5 4.19401
    endloop
  endfacet
  facet normal -0 1 0
    outer loop
      vertex 5.54859 1.5 4.10678
      vertex 6.55116 1.5 4.12078
      vertex 6.05032 1.5 4.08224
    endloop
  endfacet
  facet normal -0.626604 0 -0.779338
    outer loop
      vertex 3.29726 -1.5 5.12803
      vertex 3.68874 1.5 4.81327
      vertex 3.68874 -1.5 4.81327
    endloop
  endfacet
  facet normal -0.626604 0 -0.779338
    outer loop
      vertex 3.68874 1.5 4.81327
      vertex 3.29726 -1.5 5.12803
      vertex 3.29726 1.5 5.12803
    endloop
  endfacet
  facet normal 0.626605 0 0.779337
    outer loop
      vertex 8.3002 1.5 11.3504
      vertex 8.69168 -1.5 11.0357
      vertex 8.69168 1.5 11.0357
    endloop
  endfacet
  facet normal 0.626605 0 0.779337
    outer loop
      vertex 8.69168 -1.5 11.0357
      vertex 8.3002 1.5 11.3504
      vertex 8.3002 -1.5 11.3504
    endloop
  endfacet
  facet normal -0.547564 0 0.836764
    outer loop
      vertex 3.59837 1.5 11.2848
      vertex 4.0187 -1.5 11.5598
      vertex 4.0187 1.5 11.5598
    endloop
  endfacet
  facet normal -0.547564 0 0.836764
    outer loop
      vertex 4.0187 -1.5 11.5598
      vertex 3.59837 1.5 11.2848
      vertex 3.59837 -1.5 11.2848
    endloop
  endfacet
  facet normal 0.173648 0 0.984808
    outer loop
      vertex 6.44034 1.5 12.0569
      vertex 6.93504 -1.5 11.9697
      vertex 6.93504 1.5 11.9697
    endloop
  endfacet
  facet normal 0.173648 0 0.984808
    outer loop
      vertex 6.93504 -1.5 11.9697
      vertex 6.44034 1.5 12.0569
      vertex 6.44034 -1.5 12.0569
    endloop
  endfacet
  facet normal 0.648119 0 -0.761539
    outer loop
      vertex 8.39056 -1.5 4.87893
      vertex 8.7731 1.5 5.20449
      vertex 8.7731 -1.5 5.20449
    endloop
  endfacet
  facet normal 0.648119 0 -0.761539
    outer loop
      vertex 8.7731 1.5 5.20449
      vertex 8.39056 -1.5 4.87893
      vertex 8.39056 1.5 4.87893
    endloop
  endfacet
  facet normal -0.0488509 0 -0.998806
    outer loop
      vertex 5.54859 -1.5 4.10678
      vertex 6.05032 1.5 4.08224
      vertex 6.05032 -1.5 4.08224
    endloop
  endfacet
  facet normal -0.0488509 0 -0.998806
    outer loop
      vertex 6.05032 1.5 4.08224
      vertex 5.54859 -1.5 4.10678
      vertex 5.54859 1.5 4.10678
    endloop
  endfacet
  facet normal -0.173648 0 -0.984808
    outer loop
      vertex 5.0539 -1.5 4.19401
      vertex 5.54859 1.5 4.10678
      vertex 5.54859 -1.5 4.10678
    endloop
  endfacet
  facet normal -0.173648 0 -0.984808
    outer loop
      vertex 5.54859 1.5 4.10678
      vertex 5.0539 -1.5 4.19401
      vertex 5.0539 1.5 4.19401
    endloop
  endfacet
  facet normal 0.322265 0 -0.94665
    outer loop
      vertex 7.04322 -1.5 4.22179
      vertex 7.51875 1.5 4.38367
      vertex 7.51875 -1.5 4.38367
    endloop
  endfacet
  facet normal 0.322265 0 -0.94665
    outer loop
      vertex 7.51875 1.5 4.38367
      vertex 7.04322 -1.5 4.22179
      vertex 7.04322 1.5 4.22179
    endloop
  endfacet
  facet normal 0.201079 0 -0.979575
    outer loop
      vertex 6.55116 -1.5 4.12078
      vertex 7.04322 1.5 4.22179
      vertex 7.04322 -1.5 4.22179
    endloop
  endfacet
  facet normal 0.201079 0 -0.979575
    outer loop
      vertex 7.04322 1.5 4.22179
      vertex 6.55116 -1.5 4.12078
      vertex 6.55116 1.5 4.12078
    endloop
  endfacet
  facet normal -0.71934 0 -0.694658
    outer loop
      vertex 3.29726 -1.5 5.12803
      vertex 2.94831 1.5 5.48937
      vertex 3.29726 1.5 5.12803
    endloop
  endfacet
  facet normal -0.71934 -0 -0.694658
    outer loop
      vertex 2.94831 1.5 5.48937
      vertex 3.29726 -1.5 5.12803
      vertex 2.94831 -1.5 5.48937
    endloop
  endfacet
  facet normal -0.800731 0 -0.599024
    outer loop
      vertex 2.94831 -1.5 5.48937
      vertex 2.64741 1.5 5.8916
      vertex 2.94831 1.5 5.48937
    endloop
  endfacet
  facet normal -0.800731 -0 -0.599024
    outer loop
      vertex 2.64741 1.5 5.8916
      vertex 2.94831 -1.5 5.48937
      vertex 2.64741 -1.5 5.8916
    endloop
  endfacet
  facet normal -0.413105 0 -0.910683
    outer loop
      vertex 4.11658 -1.5 4.55006
      vertex 4.57404 1.5 4.34255
      vertex 4.57404 -1.5 4.34255
    endloop
  endfacet
  facet normal -0.413105 0 -0.910683
    outer loop
      vertex 4.57404 1.5 4.34255
      vertex 4.11658 -1.5 4.55006
      vertex 4.11658 1.5 4.55006
    endloop
  endfacet
  facet normal 0.869495 -0 0.493942
    outer loop
      vertex 9.34153 -1.5 10.2721
      vertex 9.58964 1.5 9.83534
      vertex 9.34153 1.5 10.2721
    endloop
  endfacet
  facet normal 0.869495 0 0.493942
    outer loop
      vertex 9.58964 1.5 9.83534
      vertex 9.34153 -1.5 10.2721
      vertex 9.58964 -1.5 9.83534
    endloop
  endfacet
  facet normal 0.999903 -0 0.0139618
    outer loop
      vertex 9.98268 -1.5 8.38873
      vertex 9.98969 1.5 7.88645
      vertex 9.98268 1.5 8.38873
    endloop
  endfacet
  facet normal 0.999903 0 0.0139618
    outer loop
      vertex 9.98969 1.5 7.88645
      vertex 9.98268 -1.5 8.38873
      vertex 9.98969 -1.5 7.88645
    endloop
  endfacet
  facet normal 0.993768 0 -0.11147
    outer loop
      vertex 9.98969 -1.5 7.88645
      vertex 9.9337 1.5 7.38726
      vertex 9.98969 1.5 7.88645
    endloop
  endfacet
  facet normal 0.993768 0 -0.11147
    outer loop
      vertex 9.9337 1.5 7.38726
      vertex 9.98969 -1.5 7.88645
      vertex 9.9337 -1.5 7.38726
    endloop
  endfacet
  facet normal -0.201078 0 0.979575
    outer loop
      vertex 4.94571 1.5 11.9419
      vertex 5.43778 -1.5 12.0429
      vertex 5.43778 1.5 12.0429
    endloop
  endfacet
  facet normal -0.201078 0 0.979575
    outer loop
      vertex 5.43778 -1.5 12.0429
      vertex 4.94571 1.5 11.9419
      vertex 4.94571 -1.5 11.9419
    endloop
  endfacet
  facet normal -0.882948 0 0.469472
    outer loop
      vertex 2.5 -1.5 10.0131
      vertex 2.58756 1.5 10.1778
      vertex 2.5 1.5 10.0131
    endloop
  endfacet
  facet normal -0.882948 0 0.469472
    outer loop
      vertex 2.58756 1.5 10.1778
      vertex 2.5 -1.5 10.0131
      vertex 2.58756 -1.5 10.1778
    endloop
  endfacet
  facet normal 0.413105 0 0.910683
    outer loop
      vertex 7.4149 1.5 11.8212
      vertex 7.87235 -1.5 11.6136
      vertex 7.87235 1.5 11.6136
    endloop
  endfacet
  facet normal 0.413105 0 0.910683
    outer loop
      vertex 7.87235 -1.5 11.6136
      vertex 7.4149 1.5 11.8212
      vertex 7.4149 -1.5 11.8212
    endloop
  endfacet
  facet normal 0.523985 0 0.851727
    outer loop
      vertex 7.87235 1.5 11.6136
      vertex 8.3002 -1.5 11.3504
      vertex 8.3002 1.5 11.3504
    endloop
  endfacet
  facet normal 0.523985 0 0.851727
    outer loop
      vertex 8.3002 -1.5 11.3504
      vertex 7.87235 1.5 11.6136
      vertex 7.87235 -1.5 11.6136
    endloop
  endfacet
  facet normal 0.800731 -0 0.599024
    outer loop
      vertex 9.04062 -1.5 10.6743
      vertex 9.34153 1.5 10.2721
      vertex 9.04062 1.5 10.6743
    endloop
  endfacet
  facet normal 0.800731 0 0.599024
    outer loop
      vertex 9.34153 1.5 10.2721
      vertex 9.04062 -1.5 10.6743
      vertex 9.34153 -1.5 10.2721
    endloop
  endfacet
  facet normal 0.71934 -0 0.694658
    outer loop
      vertex 8.69168 -1.5 11.0357
      vertex 9.04062 1.5 10.6743
      vertex 8.69168 1.5 11.0357
    endloop
  endfacet
  facet normal 0.71934 0 0.694658
    outer loop
      vertex 9.04062 1.5 10.6743
      vertex 8.69168 -1.5 11.0357
      vertex 9.04062 -1.5 10.6743
    endloop
  endfacet
  facet normal 0.924546 -0 0.38107
    outer loop
      vertex 9.58964 -1.5 9.83534
      vertex 9.78106 1.5 9.37092
      vertex 9.58964 1.5 9.83534
    endloop
  endfacet
  facet normal 0.924546 0 0.38107
    outer loop
      vertex 9.78106 1.5 9.37092
      vertex 9.58964 -1.5 9.83534
      vertex 9.78106 -1.5 9.37092
    endloop
  endfacet
  facet normal 0.965016 -0 0.26219
    outer loop
      vertex 9.78106 -1.5 9.37092
      vertex 9.91277 1.5 8.88616
      vertex 9.78106 1.5 9.37092
    endloop
  endfacet
  facet normal 0.965016 0 0.26219
    outer loop
      vertex 9.91277 1.5 8.88616
      vertex 9.78106 -1.5 9.37092
      vertex 9.91277 -1.5 8.88616
    endloop
  endfacet
  facet normal -0.64812 0 0.761538
    outer loop
      vertex 3.21583 1.5 10.9592
      vertex 3.59837 -1.5 11.2848
      vertex 3.59837 1.5 11.2848
    endloop
  endfacet
  facet normal -0.64812 0 0.761538
    outer loop
      vertex 3.59837 -1.5 11.2848
      vertex 3.21583 1.5 10.9592
      vertex 3.21583 -1.5 10.9592
    endloop
  endfacet
  facet normal -0.817145 0 0.576432
    outer loop
      vertex 2.58756 -1.5 10.1778
      vertex 2.87712 1.5 10.5883
      vertex 2.58756 1.5 10.1778
    endloop
  endfacet
  facet normal -0.817145 0 0.576432
    outer loop
      vertex 2.87712 1.5 10.5883
      vertex 2.58756 -1.5 10.1778
      vertex 2.87712 -1.5 10.5883
    endloop
  endfacet
  facet normal -0.438371 0 0.898794
    outer loop
      vertex 4.0187 1.5 11.5598
      vertex 4.47019 -1.5 11.78
      vertex 4.47019 1.5 11.78
    endloop
  endfacet
  facet normal -0.438371 0 0.898794
    outer loop
      vertex 4.47019 -1.5 11.78
      vertex 4.0187 1.5 11.5598
      vertex 4.0187 -1.5 11.5598
    endloop
  endfacet
  facet normal -0.322265 0 0.94665
    outer loop
      vertex 4.47019 1.5 11.78
      vertex 4.94571 -1.5 11.9419
      vertex 4.94571 1.5 11.9419
    endloop
  endfacet
  facet normal -0.322265 0 0.94665
    outer loop
      vertex 4.94571 -1.5 11.9419
      vertex 4.47019 1.5 11.78
      vertex 4.47019 -1.5 11.78
    endloop
  endfacet
  facet normal -0.0767193 0 0.997053
    outer loop
      vertex 5.43778 1.5 12.0429
      vertex 5.93862 -1.5 12.0815
      vertex 5.93862 1.5 12.0815
    endloop
  endfacet
  facet normal -0.0767193 0 0.997053
    outer loop
      vertex 5.93862 -1.5 12.0815
      vertex 5.43778 1.5 12.0429
      vertex 5.43778 -1.5 12.0429
    endloop
  endfacet
  facet normal 0.0488509 0 0.998806
    outer loop
      vertex 5.93862 1.5 12.0815
      vertex 6.44034 -1.5 12.0569
      vertex 6.44034 1.5 12.0569
    endloop
  endfacet
  facet normal 0.0488509 0 0.998806
    outer loop
      vertex 6.44034 -1.5 12.0569
      vertex 5.93862 1.5 12.0815
      vertex 5.93862 -1.5 12.0815
    endloop
  endfacet
  facet normal -0.738455 0 0.674302
    outer loop
      vertex 2.87712 -1.5 10.5883
      vertex 3.21583 1.5 10.9592
      vertex 2.87712 1.5 10.5883
    endloop
  endfacet
  facet normal -0.738455 0 0.674302
    outer loop
      vertex 3.21583 1.5 10.9592
      vertex 2.87712 -1.5 10.5883
      vertex 3.21583 -1.5 10.9592
    endloop
  endfacet
  facet normal 1 0 0
    outer loop
      vertex -4.5 3 9.6066
      vertex -4.5 1.86396 5.63604
      vertex -4.5 3 5.63604
    endloop
  endfacet
  facet normal 1 0 -0
    outer loop
      vertex -4.5 1.86396 5.63604
      vertex -4.5 3 9.6066
      vertex -4.5 -2.1066 9.6066
    endloop
  endfacet
  facet normal 1 -0 0
    outer loop
      vertex -4.5 -3.5 10.5
      vertex -4.5 -2.1066 9.6066
      vertex -4.5 -3 10.5
    endloop
  endfacet
  facet normal 1 0 0
    outer loop
      vertex -4.5 -2.1066 9.6066
      vertex -4.5 -3.5 10.5
      vertex -4.5 -3.5 5.5
    endloop
  endfacet
  facet normal 1 0 0
    outer loop
      vertex -4.5 -2.1066 9.6066
      vertex -4.5 -3.5 5.5
      vertex -4.5 1.86396 5.63604
    endloop
  endfacet
  facet normal 1 0 0
    outer loop
      vertex -4.5 1.86396 5.63604
      vertex -4.5 -3.5 5.5
      vertex -4.5 2 5.5
    endloop
  endfacet
  facet normal -1 0 0
    outer loop
      vertex -4.75 -4.5 -5.03621e-16
      vertex -4.75 4.5 -5.51091e-16
      vertex -4.75 4.5 -1.6058e-15
    endloop
  endfacet
  facet normal -1 0 0
    outer loop
      vertex -4.75 4.5 -5.51091e-16
      vertex -4.75 -4.5 -5.03621e-16
      vertex -4.75 -4.5 5.51091e-16
    endloop
  endfacet
  facet normal 0 1 -0
    outer loop
      vertex -4.75 -4.5 -5.03621e-16
      vertex -6.5 -4.5 5.51091e-16
      vertex -4.75 -4.5 5.51091e-16
    endloop
  endfacet
  facet normal 0 1 0
    outer loop
      vertex -6.5 -4.5 5.51091e-16
      vertex -4.75 -4.5 -5.03621e-16
      vertex -6.5 -4.5 -8.92199e-16
    endloop
  endfacet
  facet normal 0 -1.22465e-16 -1
    outer loop
      vertex -6.5 -4.5 5.51091e-16
      vertex -4.75 4.5 -5.51091e-16
      vertex -4.75 -4.5 5.51091e-16
    endloop
  endfacet
  facet normal -0 -1.22465e-16 -1
    outer loop
      vertex -4.75 4.5 -5.51091e-16
      vertex -6.5 -4.5 5.51091e-16
      vertex -6.5 4.5 -5.51091e-16
    endloop
  endfacet
  facet normal 0 -1.22465e-16 -1
    outer loop
      vertex -16.1066 -3 3.67394e-16
      vertex -10.136 -1 1.22465e-16
      vertex -10.136 -3 3.67394e-16
    endloop
  endfacet
  facet normal -0 -1.22465e-16 -1
    outer loop
      vertex -10.136 -1 1.22465e-16
      vertex -16.1066 -3 3.67394e-16
      vertex -16.1066 -1 1.22465e-16
    endloop
  endfacet
  facet normal 0 -1.22465e-16 -1
    outer loop
      vertex -16.1066 1 -1.22465e-16
      vertex -10.136 3 -3.67394e-16
      vertex -10.136 1 -1.22465e-16
    endloop
  endfacet
  facet normal -0 -1.22465e-16 -1
    outer loop
      vertex -10.136 3 -3.67394e-16
      vertex -16.1066 1 -1.22465e-16
      vertex -16.1066 3 -3.67394e-16
    endloop
  endfacet
  facet normal 0 -1 0
    outer loop
      vertex -6.5 4.5 -5.51091e-16
      vertex -4.75 4.5 -1.6058e-15
      vertex -4.75 4.5 -5.51091e-16
    endloop
  endfacet
  facet normal -0 -1 0
    outer loop
      vertex -4.75 4.5 -1.6058e-15
      vertex -6.5 4.5 -5.51091e-16
      vertex -6.5 4.5 -1.99438e-15
    endloop
  endfacet
endsolid OpenSCAD_Model
